<?xml version="1.0" encoding="UTF-8"?>
<svg id="Layer_1" data-name="Layer 1" xmlns="http://www.w3.org/2000/svg" version="1.1" viewBox="0 0 1000 1000">
  <defs>
    <style>
      .cls-1 {
        fill: #d7bf4c;
        stroke-width: 0px;
      }
    </style>
  </defs>
  <path class="cls-1" d="M237.4,609.2c-14.2-6.5-27.7-12.7-41.3-18.9-27.3-12.4-54.6-24.8-82-37.1-36.3-16.4-72.5-32.7-108.8-49.1-.8-.3-1.7-.5-2.3-1-1.1-.9-2-2.1-3.1-3.1,1-.9,1.9-2,3.1-2.5,10.9-5,21.9-9.9,32.8-14.9,33.8-15.3,67.6-30.7,101.4-46,31.9-14.4,63.8-28.8,95.7-43.3,1.3-.6,2.5-1.3,4.1-2.1-2.8-7.6-5.4-15.2-8.3-22.7-8.6-22.7-17.2-45.4-25.8-68.1-7.5-19.8-15.1-39.5-22.6-59.3-7.3-19.5-14.5-39-21.8-58.4-4-10.8-8.2-21.6-12.2-32.4-.4-1.2-.2-2.6-.3-3.9,1.3.1,2.7,0,3.9.4,34.7,13.1,69.4,26.2,104.1,39.3,31.4,11.8,62.9,23.5,94.4,35.3,14.1,5.3,28,10.8,42.4,16.3,3.5-7.4,6.9-14.6,10.1-21.8,11-24.1,21.9-48.3,32.8-72.5,13.9-30.8,27.8-61.6,41.7-92.3,7.1-15.6,14.1-31.3,21.3-46.9C497.6,2.6,499,1.4,500,0c1.1,1.4,2.5,2.6,3.2,4.1,17.9,39.4,35.8,78.8,53.6,118.2,11.3,24.9,22.3,50,33.6,74.9,6,13.3,12.3,26.5,18.7,40.2,9.2-3.4,18.3-6.7,27.3-10.1,19.6-7.4,39.1-14.8,58.7-22.2,22.9-8.7,45.8-17.4,68.8-26,17-6.4,34-12.5,51-18.9,11.9-4.4,23.6-9.1,35.5-13.6,1-.4,2.3-.2,3.5-.2,0,1.2.3,2.5,0,3.5-10.8,29-21.8,57.9-32.7,86.9-12.9,34.2-25.7,68.4-38.6,102.5-5.9,15.5-11.8,30.9-17.7,46.4-.6,1.7-1.1,3.4-1.8,5.7,6.2,2.8,12.3,5.7,18.5,8.5,32.2,14.7,64.5,29.4,96.7,44,39,17.7,78.1,35.2,117.2,52.8.5.2,1.1.3,1.5.7,1.1.9,2.1,2,3.1,3-1.1,1-2.1,2.2-3.4,2.8-10.7,4.9-21.4,9.7-32.1,14.5-50,22.6-100,45.1-149.9,67.7-17.1,7.8-34.2,15.7-51.7,23.7,2.8,7.7,5.5,15.2,8.3,22.7,8,21.3,16.1,42.5,24.1,63.8,11.8,31.2,23.5,62.3,35.3,93.5,7.7,20.3,15.3,40.6,22.9,61,.4,1.1.2,2.5.3,3.8-1.3,0-2.7.2-3.9-.3-33.5-12.6-67-25.3-100.5-37.9-30.5-11.5-61-23-91.6-34.5-14.8-5.6-29.7-11.2-44.5-16.9-3.1-1.2-4.8-.5-6.2,2.5-13.7,30.6-27.5,61.1-41.3,91.6-12.3,27.1-24.6,54.1-36.8,81.2-8.4,18.6-16.8,37.1-25.2,55.7-.3.6-.4,1.4-.8,1.9-.8,1-1.9,2.6-2.8,2.6-1,0-2.2-1.5-2.8-2.6-2.8-5.9-5.4-12-8.1-18-12.9-28.5-25.7-57-38.6-85.5-13.6-30.3-27.3-60.6-40.9-90.8-5.5-12.1-11.2-24-16.6-36.1-1.4-3.1-3.1-3.7-6.2-2.5-20.8,8-41.6,15.9-62.5,23.8-42.3,16-84.6,31.8-126.9,47.8-15.7,5.9-31.5,11.9-47.3,17.7-1.2.4-2.6.2-3.9.3,0-1.3-.2-2.7.3-3.8,10.3-27.5,20.7-55,31-82.6,14.5-38.6,29-77.3,43.5-115.9,5.3-14,10.7-28,16.2-42.5ZM243.8,755.1l.9,1.1c4.4-1.7,8.7-3.4,13.1-5,25.6-9.6,51.2-19,76.8-28.7,27.8-10.5,55.5-21.1,83.4-31.4,1.2-.5,3.4.7,4.7,1.7,1,.8,1.3,2.4,1.9,3.7,11.2,24.8,22.4,49.6,33.6,74.4,11.8,26.1,23.6,52.1,35.4,78.2,1.9,4.2,4,8.4,6.4,13.6,1.4-2.7,2.3-4.3,3.1-5.9,5.4-12,10.7-23.9,16.1-35.9,12.9-28.5,25.8-56.9,38.8-85.4,6.4-14.1,12.9-28.2,19.2-42.4,1.2-2.7,2.8-3.1,5.3-2.1,4.1,1.6,8.3,3.1,12.5,4.7,30,11.4,60,22.7,90,34.1,22.6,8.5,45.2,17,67.8,25.4.9.4,2,.4,3.1.6.1-.9.3-1.3.2-1.7-10.5-27.9-20.9-55.9-31.4-83.8-10.8-28.6-21.6-57.1-32.3-85.7-2.3-6.2-2-6.5,3.7-9,19-8.5,38-17,56.9-25.5,29.9-13.5,59.8-27,89.6-40.5,6.4-2.9,12.8-6,20-9.4-2-1.1-3.1-1.8-4.3-2.4-39.7-18.1-79.5-36.2-119.3-54.2-14.6-6.6-29.3-13.1-44-19.7-4.7-2.1-5-2.9-3.2-7.6,1.3-3.1,2.5-6.2,3.6-9.3,8.4-22.6,16.6-45.3,25.1-67.9,11.2-29.9,22.6-59.7,33.9-89.6.7-1.7,1.1-3.5,1.7-5.5-1,0-1.5-.3-1.8-.1-30.8,11.6-61.6,23.2-92.4,34.8-25.7,9.7-51.4,19.3-77.1,29-6.5,2.4-6.4,2.3-9.3-3.9-9.5-21.1-19.1-42.2-28.6-63.3-14.1-31.3-28.3-62.5-42.4-93.8-1.3-2.9-2.9-5.7-4.7-9.3-.9,1.6-1.2,2.2-1.5,2.8-5.3,11.8-10.7,23.6-16,35.4-11.8,26.1-23.7,52.1-35.4,78.2-7.7,17.1-15.3,34.1-23,51.2-1.4,3.1-3,5.3-6.9,3.8-7.4-2.9-14.8-5.6-22.2-8.4-18.1-6.9-36.3-13.7-54.4-20.6-22.8-8.6-45.6-17.2-68.4-25.8-9.1-3.4-18.2-6.8-27.7-10.3,0,1.2-.2,2.1,0,2.8,5.5,14.8,11.1,29.5,16.7,44.3,6.2,16.4,12.6,32.7,18.7,49.2,9.6,25.6,19,51.3,28.7,76.8,1.5,3.9.5,5.6-2.9,7.1-25.8,11.6-51.7,23.3-77.5,35-28.7,13-57.5,26-86.2,39.1-1.3.6-2.4,1.4-4.3,2.6,9.6,4.3,18.2,8.3,26.8,12.2,25.9,11.7,51.9,23.5,77.8,35.2,21.4,9.7,42.7,19.4,64.1,29,2.8,1.2,3.6,2.8,2.6,5.5-2.3,6.1-4.6,12.2-6.9,18.3-7.9,21-15.8,42-23.8,63.1-8.5,22.4-16.9,44.9-25.4,67.3-3,8.1-6,16.1-9,24.2Z"/>
</svg>